<svg width="58" height="66" viewBox="0 0 29 33" fill="none" xmlns="http://www.w3.org/2000/svg">
<g filter="url(#filter0_d_53_336963)">
<path d="M5.44977 4.64435C5.44624 4.36989 5.66776 4.14551 5.94224 4.14551L17.1024 4.14551V9.06515C17.1024 9.33715 17.3229 9.55766 17.5949 9.55766H22.9997L22.9997 26.3622C22.9997 26.6342 22.7792 26.8547 22.5072 26.8547H6.22159C5.95206 26.8547 5.73259 26.638 5.72913 26.3685L5.44977 4.64435Z" fill="#FFF6F6"/>
<path d="M17.0146 9.55143H22.9998L17.0146 4.14551V9.55143Z" fill="#C60000"/>
<path d="M17.0146 4.14551V9.05892C17.0146 9.33093 17.2351 9.55143 17.5071 9.55143H22.9997M17.0146 4.14551L6.31252 4.14551C6.04377 4.14551 5.82464 4.36096 5.82008 4.62967L5.45185 26.3538C5.44718 26.629 5.66902 26.8547 5.94429 26.8547H22.5072C22.7792 26.8547 22.9997 26.6342 22.9997 26.3622V9.55143M17.0146 4.14551L22.9997 9.55143" stroke="#C60000" stroke-width="0.492506"/>
<rect width="15.3633" height="9.45433" transform="translate(3 14.9038)" fill="#C60000"/>
<path d="M4.89003 21.6919V17.1538H6.69265C7.0162 17.1538 7.29143 17.2063 7.51833 17.3114C7.74524 17.4164 7.91751 17.5677 8.03517 17.7652C8.15702 17.9627 8.21795 18.2001 8.21795 18.4774C8.21795 18.7548 8.15702 18.9943 8.03517 19.196C7.91751 19.3934 7.74524 19.5468 7.51833 19.6561C7.29143 19.7653 7.0162 19.8199 6.69265 19.8199H5.2682V19.3661H6.67374C7.0099 19.3661 7.26412 19.2905 7.43639 19.1392C7.61287 18.9838 7.70111 18.7632 7.70111 18.4774C7.70111 18.1917 7.61498 17.9753 7.4427 17.8282C7.27042 17.6812 7.0141 17.6076 6.67374 17.6076H5.40687V21.6919H4.89003ZM9.33514 21.6919V21.2381H10.5516C10.9298 21.2381 11.2554 21.1625 11.5285 21.0112C11.8017 20.8557 12.0118 20.6393 12.1588 20.362C12.3059 20.0847 12.3794 19.7632 12.3794 19.3976C12.3794 19.0363 12.3059 18.7211 12.1588 18.4522C12.0118 18.1833 11.8017 17.9753 11.5285 17.8282C11.2596 17.6812 10.934 17.6076 10.5516 17.6076H9.33514V17.1538H10.5516C11.0264 17.1538 11.4403 17.2484 11.7933 17.4374C12.1462 17.6223 12.4193 17.885 12.6126 18.2253C12.8101 18.5615 12.9089 18.9564 12.9089 19.4103C12.9089 19.8641 12.8101 20.2632 12.6126 20.6078C12.4151 20.9482 12.1399 21.215 11.787 21.4083C11.4382 21.5974 11.0285 21.6919 10.5579 21.6919H9.33514ZM9.0263 21.6919V17.1538H9.54313V21.6919H9.0263ZM13.7658 21.6919V17.1538H14.2826V21.6919H13.7658ZM14.0305 19.7443V19.2905H16.476V19.7443H14.0305ZM14.0305 17.6076V17.1538H16.6525V17.6076H14.0305Z" fill="white"/>
</g>
<defs>
<filter id="filter0_d_53_336963" x="0" y="0.899414" width="28.2461" height="31.2017" filterUnits="userSpaceOnUse" color-interpolation-filters="sRGB">
<feFlood flood-opacity="0" result="BackgroundImageFix"/>
<feColorMatrix in="SourceAlpha" type="matrix" values="0 0 0 0 0 0 0 0 0 0 0 0 0 0 0 0 0 0 127 0" result="hardAlpha"/>
<feOffset dx="1" dy="1"/>
<feGaussianBlur stdDeviation="2"/>
<feComposite in2="hardAlpha" operator="out"/>
<feColorMatrix type="matrix" values="0 0 0 0 1 0 0 0 0 0.0277006 0 0 0 0 0.0277006 0 0 0 0.25 0"/>
<feBlend mode="normal" in2="BackgroundImageFix" result="effect1_dropShadow_53_336963"/>
<feBlend mode="normal" in="SourceGraphic" in2="effect1_dropShadow_53_336963" result="shape"/>
</filter>
</defs>
</svg>
